HIERARCHY
ROOT Hips
{
 OFFSET 0.000000 0.000000 0.000000
 CHANNELS 6 Xposition Yposition Zposition Yrotation Xrotation Zrotation
 JOINT Chest
 {
  OFFSET 0.000000 9.585900 0.002600
  CHANNELS 3 Yrotation Xrotation Zrotation
  JOINT Chest2
  {
   OFFSET 0.000000 9.601200 -0.005300
   CHANNELS 3 Yrotation Xrotation Zrotation
   JOINT Chest3
   {
    OFFSET 0.000000 9.561800 0.000000
    CHANNELS 3 Yrotation Xrotation Zrotation
    JOINT Chest4
    {
     OFFSET 0.000000 9.552100 0.000000
     CHANNELS 3 Yrotation Xrotation Zrotation
     JOINT Neck
     {
      OFFSET 0.000000 14.453000 0.000000
      CHANNELS 3 Yrotation Xrotation Zrotation
      JOINT Head
      {
       OFFSET 0.000000 8.936500 -0.011300
       CHANNELS 3 Yrotation Xrotation Zrotation
       End Site
       {
        OFFSET 0.000000 17.073600 -0.006000
       }
      }
     }
     JOINT RightCollar
     {
      OFFSET -2.921100 9.558500 0.000000
      CHANNELS 3 Yrotation Xrotation Zrotation
      JOINT RightShoulder
      {
       OFFSET -13.519700 0.000000 0.000000
       CHANNELS 3 Yrotation Xrotation Zrotation
       JOINT RightElbow
       {
        OFFSET 0.000000 -29.696600 0.000000
        CHANNELS 3 Yrotation Xrotation Zrotation
        JOINT RightWrist
        {
         OFFSET 0.000000 -24.004700 0.000000
         CHANNELS 3 Yrotation Xrotation Zrotation
         End Site
         {
          OFFSET 0.000000 -17.728500 0.000000
         }
        }
       }
      }
     }
     JOINT LeftCollar
     {
      OFFSET 2.921100 9.558500 0.000000
      CHANNELS 3 Yrotation Xrotation Zrotation
      JOINT LeftShoulder
      {
       OFFSET 13.519700 0.000000 0.000000
       CHANNELS 3 Yrotation Xrotation Zrotation
       JOINT LeftElbow
       {
        OFFSET 0.000000 -29.696600 0.000000
        CHANNELS 3 Yrotation Xrotation Zrotation
        JOINT LeftWrist
        {
         OFFSET 0.000000 -24.004700 0.000000
         CHANNELS 3 Yrotation Xrotation Zrotation
         End Site
         {
          OFFSET 0.000000 -17.728500 0.000000
         }
        }
       }
      }
     }
    }
   }
  }
 }
 JOINT RightHip
 {
  OFFSET -7.771700 -0.012900 -0.001300
  CHANNELS 3 Yrotation Xrotation Zrotation
  JOINT RightKnee
  {
   OFFSET 0.000000 -40.869800 0.001200
   CHANNELS 3 Yrotation Xrotation Zrotation
   JOINT RightAnkle
   {
    OFFSET 0.000000 -39.717900 0.002100
    CHANNELS 3 Yrotation Xrotation Zrotation
    JOINT RightToe
    {
     OFFSET 0.000000 -4.965400 11.033500
     CHANNELS 3 Yrotation Xrotation Zrotation
     End Site
     {
      OFFSET 0.000000 -1.423100 5.872300
     }
    }
   }
  }
 }
 JOINT LeftHip
 {
  OFFSET 7.771700 -0.012900 -0.001300
  CHANNELS 3 Yrotation Xrotation Zrotation
  JOINT LeftKnee
  {
   OFFSET 0.000000 -40.869800 0.001200
   CHANNELS 3 Yrotation Xrotation Zrotation
   JOINT LeftAnkle
   {
    OFFSET 0.000000 -39.717900 0.002100
    CHANNELS 3 Yrotation Xrotation Zrotation
    JOINT LeftToe
    {
     OFFSET 0.000000 -4.965400 11.033500
     CHANNELS 3 Yrotation Xrotation Zrotation
     End Site
     {
      OFFSET 0.000000 -1.423100 5.872300
     }
    }
   }
  }
 }
}
MOTION
Frames: 7
Frame Time: 0.008333
2.126819 52.318053 36.347925 172.657946 -37.198772 -2.005785 2.711360 20.113174 1.349428 0.326881 2.552379 0.295473 0.525587 4.157310 0.477556 2.453113 17.205065 2.269983 1.101768 15.419174 0.014477 2.048178 -7.142165 -0.354531 -5.195379 -0.915705 -2.707924 -4.883449 -3.204154 3.715310 -89.555434 -47.234181 113.428825 14.452069 14.046079 72.990903 -4.710441 1.647876 -0.030557 11.667513 -4.991718 2.024920 89.776749 -41.694031 -125.353175 6.787951 11.633271 -34.875843 -5.893686 -43.674888 3.442709 167.348905 86.355582 171.537484 -2.313581 -11.455808 -3.284131 0.050035 -0.199905 0.000325 -0.674835 -40.414978 4.295381 71.396217 82.554268 61.376950 -5.550881 -12.496422 9.163067 0.557754 1.757099 0.233243
2.132221 52.319053 36.347000 172.640295 -37.195166 -1.974229 2.737049 20.138559 1.349614 0.313655 2.531923 0.283612 0.537080 4.178636 0.488600 2.476088 17.222058 2.282554 1.057214 15.375876 0.004778 1.964253 -7.191557 -0.291694 -5.205444 -0.912013 -2.720457 -4.867065 -3.146970 3.650792 -89.656308 -47.526488 113.486645 14.481909 14.040716 72.752541 -4.728648 1.604738 -0.042246 11.609652 -4.949371 2.184365 91.659579 -43.416355 -126.273496 7.068828 10.999776 -31.200239 -5.898676 -43.681801 3.428925 167.221220 86.346537 171.402465 -2.306256 -11.460190 -3.301682 0.047453 -0.203311 0.001468 -0.726424 -40.400933 4.318591 71.334507 82.552202 61.259944 -5.545224 -12.513902 9.155424 0.561345 1.772101 0.235947
2.138932 52.319469 36.346585 172.627841 -37.187180 -1.952253 2.755880 20.158987 1.357949 0.315978 2.536204 0.284518 0.544885 4.174660 0.491239 2.467456 17.215246 2.274956 1.034806 15.370939 0.026344 1.881780 -7.242096 -0.256455 -5.191440 -0.887665 -2.727526 -4.847118 -3.089502 3.590945 -89.754875 -47.815674 113.532322 14.518999 14.046550 72.520412 -4.707418 1.584475 -0.045613 11.521210 -4.916462 2.334502 93.792635 -45.305197 -127.322787 7.148244 10.337718 -27.514842 -5.886245 -43.693453 3.418026 167.262404 86.340790 171.446238 -2.302581 -11.464412 -3.310286 0.046199 -0.205014 0.003359 -0.739976 -40.401966 4.323462 71.304746 82.553249 61.206691 -5.534154 -12.511130 9.156600 0.561333 1.765441 0.232953
2.146325 52.319509 36.345969 172.619386 -37.179301 -1.936064 2.776853 20.171629 1.374235 0.318545 2.539333 0.285530 0.549589 4.174314 0.490827 2.459407 17.210295 2.268995 1.015873 15.364793 0.047588 1.788899 -7.277763 -0.227006 -5.180764 -0.869697 -2.731033 -4.812365 -3.028896 3.535491 -89.867044 -48.119312 113.572532 14.565041 14.066663 72.299993 -4.642469 1.515915 -0.033367 11.365189 -4.845603 2.473106 96.210729 -47.337674 -128.541460 6.936621 9.659778 -23.891247 -5.880638 -43.703726 3.406280 167.249353 86.335939 171.442179 -2.295820 -11.468986 -3.326599 0.045832 -0.205595 0.003696 -0.767675 -40.404180 4.334851 71.250302 82.562493 61.133327 -5.527335 -12.507398 9.146359 0.565859 1.758945 0.238906
2.155682 52.320261 36.343686 172.603618 -37.184227 -1.926450 2.808821 20.187163 1.398604 0.321396 2.542010 0.286757 0.555776 4.170507 0.495639 2.476959 17.222921 2.275559 0.969831 15.348740 0.058270 1.677697 -7.305608 -0.203803 -5.188651 -0.868583 -2.738326 -4.777035 -2.964124 3.488816 -89.994097 -48.449797 113.610397 14.621613 14.100194 72.086528 -4.651389 1.436745 -0.025687 11.221006 -4.788366 2.602768 98.964553 -49.486391 -129.985094 6.362958 8.980509 -20.405485 -5.897147 -43.697343 3.419062 167.224950 86.332137 171.416452 -2.287566 -11.472999 -3.343595 0.047375 -0.208573 0.003645 -0.804003 -40.393894 4.363218 71.180576 82.588168 61.043628 -5.500716 -12.508140 9.135636 0.567979 1.754508 0.237354
2.163217 52.319659 36.341688 172.600540 -37.182984 -1.915640 2.852386 20.193368 1.446866 0.299216 2.541033 0.266396 0.563473 4.170669 0.498390 2.540837 17.227493 2.312455 0.858586 15.327563 0.058245 1.552776 -7.330041 -0.210107 -5.191927 -0.859683 -2.745695 -4.796024 -2.907977 3.434822 -90.136705 -48.815198 113.652033 14.692870 14.146082 71.858048 -4.706049 1.344388 -0.033542 11.026025 -4.731205 2.723493 102.079458 -51.729184 -131.693119 5.422988 8.283632 -17.111319 -5.920526 -43.698648 3.414963 167.184798 86.323509 171.379029 -2.275553 -11.479529 -3.370240 0.046632 -0.212750 0.009217 -0.825928 -40.389975 4.373516 71.158244 82.595614 61.003237 -5.493776 -12.509352 9.137967 0.566767 1.753714 0.229700
2.171372 52.318856 36.338883 172.579943 -37.187649 -1.900014 2.880897 20.198014 1.458852 0.313699 2.544389 0.278994 0.574089 4.168593 0.501680 2.583378 17.225860 2.336194 0.760256 15.312781 0.038840 1.391076 -7.379706 -0.212108 -5.253948 -0.860592 -2.758550 -4.757281 -2.844168 3.405178 -90.323849 -49.232892 113.724963 14.780437 14.216186 71.585296 -4.746202 1.248911 -0.032440 10.765302 -4.683410 2.831715 105.574278 -54.055196 -133.701845 4.188572 7.563595 -14.023100 -5.972018 -43.695032 3.450643 167.149627 86.312857 171.311595 -2.266966 -11.481780 -3.388157 0.038761 -0.217035 0.010133 -0.831119 -40.381577 4.385962 71.146462 82.609128 60.982711 -5.484216 -12.512957 9.131362 0.562090 1.749670 0.231208
